<svg width="146" height="19" viewBox="0 0 146 19" fill="none" xmlns="http://www.w3.org/2000/svg">
<path d="M10.45 18.3C8.66667 18.3 7.05 17.9167 5.6 17.15C4.16667 16.3667 3.03333 15.2917 2.2 13.925C1.38333 12.5417 0.975 10.9833 0.975 9.25C0.975 7.51667 1.38333 5.96667 2.2 4.6C3.03333 3.21667 4.16667 2.14167 5.6 1.375C7.05 0.591666 8.675 0.2 10.475 0.2C11.9917 0.2 13.3583 0.466666 14.575 1C15.8083 1.53333 16.8417 2.3 17.675 3.3L15.075 5.7C13.8917 4.33333 12.425 3.65 10.675 3.65C9.59167 3.65 8.625 3.89167 7.775 4.375C6.925 4.84167 6.25833 5.5 5.775 6.35C5.30833 7.2 5.075 8.16667 5.075 9.25C5.075 10.3333 5.30833 11.3 5.775 12.15C6.25833 13 6.925 13.6667 7.775 14.15C8.625 14.6167 9.59167 14.85 10.675 14.85C12.425 14.85 13.8917 14.1583 15.075 12.775L17.675 15.175C16.8417 16.1917 15.8083 16.9667 14.575 17.5C13.3417 18.0333 11.9667 18.3 10.45 18.3ZM35.965 18.3C34.1484 18.3 32.5067 17.9083 31.04 17.125C29.59 16.3417 28.4484 15.2667 27.615 13.9C26.7984 12.5167 26.39 10.9667 26.39 9.25C26.39 7.53333 26.7984 5.99167 27.615 4.625C28.4484 3.24167 29.59 2.15833 31.04 1.375C32.5067 0.591666 34.1484 0.2 35.965 0.2C37.7817 0.2 39.415 0.591666 40.865 1.375C42.315 2.15833 43.4567 3.24167 44.29 4.625C45.1234 5.99167 45.54 7.53333 45.54 9.25C45.54 10.9667 45.1234 12.5167 44.29 13.9C43.4567 15.2667 42.315 16.3417 40.865 17.125C39.415 17.9083 37.7817 18.3 35.965 18.3ZM35.965 14.85C36.9984 14.85 37.9317 14.6167 38.765 14.15C39.5984 13.6667 40.2484 13 40.715 12.15C41.1984 11.3 41.44 10.3333 41.44 9.25C41.44 8.16667 41.1984 7.2 40.715 6.35C40.2484 5.5 39.5984 4.84167 38.765 4.375C37.9317 3.89167 36.9984 3.65 35.965 3.65C34.9317 3.65 33.9984 3.89167 33.165 4.375C32.3317 4.84167 31.6734 5.5 31.19 6.35C30.7234 7.2 30.49 8.16667 30.49 9.25C30.49 10.3333 30.7234 11.3 31.19 12.15C31.6734 13 32.3317 13.6667 33.165 14.15C33.9984 14.6167 34.9317 14.85 35.965 14.85ZM55.6639 0.499999H63.6139C65.5139 0.499999 67.1889 0.866666 68.6389 1.6C70.1055 2.31667 71.2389 3.33333 72.0389 4.65C72.8555 5.96667 73.2639 7.5 73.2639 9.25C73.2639 11 72.8555 12.5333 72.0389 13.85C71.2389 15.1667 70.1055 16.1917 68.6389 16.925C67.1889 17.6417 65.5139 18 63.6139 18H55.6639V0.499999ZM63.4139 14.675C65.1639 14.675 66.5555 14.1917 67.5889 13.225C68.6389 12.2417 69.1639 10.9167 69.1639 9.25C69.1639 7.58333 68.6389 6.26667 67.5889 5.3C66.5555 4.31667 65.1639 3.825 63.4139 3.825H59.7139V14.675H63.4139ZM89.3982 3.75V14.75H92.4232V18H82.2982V14.75H85.3482V3.75H82.2982V0.499999H92.4232V3.75H89.3982ZM111.838 0.2C113.922 0.2 115.547 0.858333 116.713 2.175C117.88 3.475 118.463 5.33333 118.463 7.75V18H114.413V7.875C114.413 6.475 114.08 5.425 113.413 4.725C112.763 4.00833 111.855 3.65 110.688 3.65C109.455 3.65 108.463 4.03333 107.713 4.8C106.98 5.55 106.613 6.66667 106.613 8.15V18H102.563V0.499999H106.488V2.625C107.088 1.825 107.838 1.225 108.738 0.824999C109.638 0.408333 110.672 0.2 111.838 0.2ZM141.366 8.975H145.066V18H142.016V16.95C140.799 17.85 139.232 18.3 137.316 18.3C135.699 18.3 134.216 17.95 132.866 17.25C131.516 16.55 130.441 15.5333 129.641 14.2C128.841 12.85 128.441 11.25 128.441 9.4C128.441 7.61667 128.849 6.03333 129.666 4.65C130.499 3.25 131.649 2.15833 133.116 1.375C134.582 0.591666 136.232 0.2 138.066 0.2C139.599 0.2 140.991 0.458333 142.241 0.974999C143.491 1.49167 144.541 2.24167 145.391 3.225L142.791 5.625C141.541 4.30833 140.032 3.65 138.266 3.65C137.149 3.65 136.157 3.89167 135.291 4.375C134.424 4.84167 133.749 5.50833 133.266 6.375C132.782 7.24167 132.541 8.24167 132.541 9.375C132.541 10.5583 132.774 11.5667 133.241 12.4C133.724 13.2333 134.366 13.8667 135.166 14.3C135.966 14.7167 136.841 14.925 137.791 14.925C139.207 14.925 140.399 14.525 141.366 13.725V8.975Z" fill="white" fill-opacity="0.85"/>
</svg>
